<?xml version="1.0" encoding="utf-8"?>
<svg xmlns:svg="http://www.w3.org/2000/svg" xmlns="http://www.w3.org/2000/svg"><g visible="true" locked="false"><path d="" style="fill:none;stroke:#000000"/><path d="" style="fill:none;stroke:#000000"/><path d="M76.29,43.02C76.29,36.9735,77.5521,31.2217,79.8273,26.0138C81.8268,21.4369,84.6087,17.28,88.004,13.7123C91.2637,10.287,95.0887,7.40481,99.3293,5.21516C105.166,2.20171,111.789,0.5,118.81,0.5C123.051,0.5,127.147,1.12097,131.013,2.27696C133.947,3.15463,136.749,4.3407,139.379,5.79755C142.265,7.39539,144.945,9.31896,147.369,11.5186C150.349,14.2216,152.943,17.3414,155.061,20.786C157.069,24.0528,158.647,27.6117,159.718,31.3842C160.768,35.0823,161.33,38.9855,161.33,43.02C161.33,46.8817,160.815,50.6232,159.85,54.1795C158.917,57.6197,157.563,60.8866,155.846,63.9217C154.17,66.8866,152.147,69.6301,149.833,72.0975C147.112,74.9999,143.988,77.5203,140.55,79.5694C137.758,81.2341,134.758,82.5878,131.6,83.5828C127.563,84.8544,123.267,85.54,118.81,85.54C115.212,85.54,111.719,85.0932,108.383,84.252" style="fill:none;stroke:#000000"/></g></svg>