<?xml version="1.0" encoding="utf-8"?>
<svg xmlns:svg="http://www.w3.org/2000/svg" xmlns="http://www.w3.org/2000/svg"><g visible="true" locked="false"><path d="M59.3795,276.35C61.0455,269.347,63.8952,265.109,69.7952,260.309C75.6952,255.509,81.3325,253.46,90.5197,252.013C97.0337,250.987,106.143,253.497,110.994,255.068C114.238,256.118,121.929,262.379,125.38,266.161C128.659,269.755,131.483,275.461,134.697,281.782C138.307,288.88,138.9,294.5,138.2,304.6C137.5,314.7,124.623,334.137,125.7,349.7C126.43,360.245,135.4,374.4,138.3,378.8C141.2,383.2,142.9,385.8,144.8,390.7C146.8,395.6,148.1,402.8,146.6,410.2C145.1,417.6,142.6,421.6,138,427.7C133.4,433.8,121.5,445.1,115.6,453.1C109.6,461.1,107.6,467.1,106.9,477.1C106.2,487,106.7,497.3,107,510.2C107.3,523.1,107.4,538.2,107.4,556.2C107.4,574.2,107.9,688.5,107.9,714.2C108,739.9,107.3,754.3,107.7,780" style="fill:none;stroke:#000000"/><path d="M114.2,780C109.2,780,106.4,780,101.4,780" style="fill:none;stroke:#000000"/></g></svg>