<?xml version="1.0" encoding="UTF-8" standalone="no"?>
<svg
   xmlns:dc="http://purl.org/dc/elements/1.1/"
   xmlns:cc="http://creativecommons.org/ns#"
   xmlns:rdf="http://www.w3.org/1999/02/22-rdf-syntax-ns#"
   xmlns:svg="http://www.w3.org/2000/svg"
   xmlns="http://www.w3.org/2000/svg"
   xml:space="preserve"
   enable-background="new 0 0 612 792"
   viewBox="0 0 612 792"
   y="0px"
   x="0px"
   id="Layer1"
   version="1.1"><metadata
     id="metadata835"><rdf:RDF><cc:Work
         rdf:about=""><dc:format>image/svg+xml</dc:format><dc:type
           rdf:resource="http://purl.org/dc/dcmitype/StillImage" /><dc:title></dc:title></cc:Work></rdf:RDF></metadata><defs
     id="defs833" /><path
     style="fill:none;stroke:#363639;stroke-width:0.027778;stroke-miterlimit:10"
     id="path826"
     d="m 59.379487,276.34978 c 1.666002,-7.00303 4.515736,-11.24072 10.415736,-16.04072 5.9,-4.8 11.537322,-6.84937 20.724435,-8.29608 6.514025,-1.02578 15.623672,1.48395 20.474712,3.05475 3.24354,1.05027 10.93506,7.31098 14.38567,11.09296 3.27893,3.59381 6.10282,9.30055 9.31714,15.62161 3.60943,7.09803 4.20282,12.7177 3.50282,22.8177 -0.7,10.1 -13.57745,29.53718 -12.5,45.1 0.73005,10.545 9.7,24.7 12.6,29.1 2.9,4.4 4.6,7 6.5,11.9 2,4.9 3.3,12.1 1.8,19.5 -1.5,7.4 -4,11.4 -8.6,17.5 -4.6,6.1 -16.5,17.4 -22.4,25.4 -6,8 -8,14 -8.7,24 -0.7,9.9 -0.2,20.2 0.1,33.1 0.3,12.9 0.4,28 0.4,46 0,18 0.5,132.3 0.5,158 0.1,25.7 -0.6,40.1 -0.2,65.8"
     stroke-miterlimit="10" /><path
     id="path828"
     d="M114.2,780c-5,0-7.8,0-12.8,0"
     stroke-miterlimit="10"
     stroke-width="2.777800e-002"
     stroke="#363639"
     fill="none" /></svg>