<?xml version="1.0" encoding="utf-8"?>
<svg xmlns:svg="http://www.w3.org/2000/svg" xmlns="http://www.w3.org/2000/svg"><g visible="true" locked="false"><path d="M0.5,590.913C2.052,489.395,5.723,383.367,6.944,331.078C8.164,278.788,8.446,243.333,8.841,197.194C9.237,151.055,7.803,94.462,7.289,79.085C6.774,63.708,6.517,48.815,7.883,39.703C9.25,30.59,12.171,22.593,15.226,17.286C18.28,11.98,20.688,9.096,25.785,5.703C30.881,2.311,39.68,-0.39,48.8,0.775C57.921,1.939,67.529,6.863,76.442,15.15C85.355,23.438,89.319,29.486,96.227,39.674C103.134,49.862,116.561,71.869,120.875,79.979C125.189,88.09,127.805,96.443,128.035,102.379C128.265,108.316,127.083,112.261,123.281,116.827C119.479,121.392,111.629,125.989,103.867,131.462" style="fill:none;stroke:#000000"/></g></svg>