<?xml version="1.0" encoding="utf-8"?>
<svg xmlns:svg="http://www.w3.org/2000/svg" xmlns="http://www.w3.org/2000/svg"><g visible="true" locked="false"><path d="M27.936,72C25.614,72.168,21.42,68.65,20.484,66.723C18.596,62.8,19.698,57.357,19.522,53.121C19.3524,48.9785,19.5446,44.8076,19.7944,40.6242C19.9217,38.4915,20.0641,36.3555,20.1811,34.2185C20.311,31.845,20.4097,29.4702,20.422,27.097C20.4433,24.0376,20.7113,20.6809,20.7569,17.352C20.7991,14.2665,20.6504,11.2049,19.937,8.426C19.0481,4.93016,16.0849,2.14718,12.7168,1.03022C9.4804,-0.0430666,5.87008,0.421958,3.367,3.271C2.02075,4.80531,1.25096,6.71344,0.854712,8.73436C0.414458,10.9797,0.435321,13.3643,0.639,15.53C1.062,19.9,1.885,24.139,2.098,28.667C2.27017,32.2916,2.40876,35.9225,2.52402,39.5574C2.60075,41.9772,2.66715,44.3987,2.72624,46.8213C2.79063,49.4617,2.84635,52.1034,2.8973,54.7456C2.94519,57.2295,2.98888,59.7138,3.03161,62.1978C3.08305,65.1883,3.1331,68.1784,3.18745,71.1669C3.25915,75.1098,3.33832,79.0498,3.438,82.984C3.56593,88.1227,3.64638,93.3016,3.64736,98.482C3.64857,104.923,3.52694,111.366,3.221,117.738C2.984,122.428,2.911,127.21,2.876,131.894C2.734,153.014,1.018,174.391,0.857,195.627" style="fill:none;stroke:#000000"/></g></svg>