<?xml version="1.0" encoding="utf-8"?>
<!-- Generator: Adobe Illustrator 12.0.0, SVG Export Plug-In . SVG Version: 6.00 Build 51448)  -->
<!DOCTYPE svg PUBLIC "-//W3C//DTD SVG 1.1//EN" "http://www.w3.org/Graphics/SVG/1.1/DTD/svg11.dtd" [
	<!ENTITY ns_svg "http://www.w3.org/2000/svg">
	<!ENTITY ns_xlink "http://www.w3.org/1999/xlink">
]>
<svg  version="1.1" id="Layer_1" xmlns="&ns_svg;" xmlns:xlink="&ns_xlink;" width="82.239" height="428.532"
	 viewBox="0 0 82.239 428.532" overflow="visible" enable-background="new 0 0 82.239 428.532" xml:space="preserve">
<path fill="none" stroke="#000000" d="M60.688,157.365c-5.05,0.369-14.299-7.362-16.359-11.576
	c-4.134-8.617-1.669-20.561-2.085-29.852c-0.753-18.872,1.898-37.987,1.943-57.08c0.121-12.957,2.202-28.301-1.047-40.98
	C39.312,2.837,17.996-6.173,6.789,6.584c-6.212,7.09-6.846,17.853-5.978,26.864c0.944,9.586,2.73,18.92,3.185,28.825
	c1.9,39.589,1.966,79.534,2.945,119.197c0.648,25.25,0.736,51.023-0.458,76.242c-0.519,10.228-0.671,20.786-0.747,31.008
	c-0.343,46.317-4.105,93.213-4.427,139.809"/>
</svg>
