<?xml version="1.0" encoding="utf-8"?>
<svg xmlns:svg="http://www.w3.org/2000/svg" xmlns="http://www.w3.org/2000/svg"><g visible="true" locked="false"><path d="M0.043,87.245C4.52212,86.8562,8.97949,86.4822,13.297,86.0929C17.5943,85.7055,21.753,85.3028,25.6567,84.8551C28.6841,84.5079,31.5581,84.1335,34.2246,83.7181C38.0181,83.1272,41.3913,82.4532,44.188,81.656C48.4566,80.4075,51.899,79.171,55.0825,77.6435C57.2251,76.6155,59.2503,75.4557,61.3311,74.0717C63.2458,72.7982,65.2075,71.335,67.351,69.61C70.2842,67.2643,73.2556,64.6214,76.1301,61.5998C78.8112,58.7816,81.4081,55.6339,83.8112,52.0906C85.8483,49.0871,87.7461,45.7993,89.438,42.187C91.1338,38.5991,92.7418,34.866,94.2805,31.2466C96.0178,27.1601,97.6668,23.2187,99.2541,19.7949C101.136,15.7361,102.931,12.4049,104.683,10.422C106.572,8.24255,108.319,6.52053,110.207,5.1442C112.815,3.24304,115.691,2.00148,119.578,1.125C122.727,0.405886,126.937,0.253386,131.417,0.954404C134.155,1.38292,136.993,2.13037,139.751,3.26228C141.948,4.16431,144.094,5.31049,146.097,6.734C148.474,8.42379,150.695,10.5571,152.648,13.044C154.594,15.5225,156.275,18.3523,157.581,21.4445C158.558,23.7595,159.326,26.2215,159.837,28.7933C160.444,31.8473,160.689,35.056,160.497,38.357C160.338,40.7777,159.72,43.7289,158.808,47.0386C158.151,49.4219,157.342,51.9911,156.444,54.6819C155.311,58.0724,154.036,61.6561,152.742,65.3045C151.25,69.511,149.734,73.8035,148.382,77.9849C147.497,80.7258,146.682,83.419,145.993,86.009C144.738,90.7204,143.896,95.0904,143.79,98.785C143.69,102.247,144.198,105.702,145.1,109.058C145.956,112.242,147.167,115.335,148.549,118.258C150.065,121.461,151.787,124.459,153.477,127.147C156.418,131.826,159.26,135.564,160.736,137.802C162.378,140.368,163.735,142.456,164.956,144.533C166.562,147.263,167.936,149.973,169.419,153.719C170.556,156.446,171.536,159.711,172.14,163.314C172.985,168.355,173.096,174.058,171.878,179.883C171.124,183.487,170.218,186.485,169.076,189.228C167.944,191.947,166.58,194.416,164.904,196.976C163.588,198.986,162.08,201.052,160.339,203.34C159.109,204.983,157.478,206.914,155.592,209.037C153.51,211.381,151.117,213.96,148.611,216.645C146.397,219.018,144.095,221.473,141.84,223.924C139.835,226.103,137.868,228.279,136.035,230.387C133.899,232.843,131.945,235.209,130.324,237.387C128.349,240.041,126.696,242.537,125.314,244.994C124.15,247.063,123.178,249.104,122.365,251.187C121.458,253.51,120.75,255.887,120.197,258.413C119.462,261.765,119,265.382,118.706,269.492C117.756,282.824,119.338,640.702,119.676,675.119" style="fill:none;stroke:#000000"/><path d="" style="fill:none;stroke:#000000"/></g></svg>