<?xml version="1.0" encoding="utf-8"?>
<!-- Generator: Adobe Illustrator 12.0.0, SVG Export Plug-In . SVG Version: 6.00 Build 51448)  -->
<!DOCTYPE svg PUBLIC "-//W3C//DTD SVG 1.1//EN" "http://www.w3.org/Graphics/SVG/1.1/DTD/svg11.dtd" [
	<!ENTITY ns_svg "http://www.w3.org/2000/svg">
	<!ENTITY ns_xlink "http://www.w3.org/1999/xlink">
]>
<svg  version="1.1" id="Layer1" xmlns="&ns_svg;" xmlns:xlink="&ns_xlink;" width="247.654" height="675.121"
	 viewBox="0 0 247.654 675.121" overflow="visible" enable-background="new 0 0 247.654 675.121" xml:space="preserve">
<path fill="none" stroke="#363639" d="M21.642,149.904c12.983-1.127,25.723-2.087,33.105-4.192
	c7.338-2.146,11.421-4.245,17.371-9.034c5.991-4.791,12.193-11.234,16.563-20.565c4.41-9.33,8.028-19.969,11.433-23.821
	c3.374-3.892,6.146-5.839,11.171-6.972c4.954-1.132,13.417-0.392,19.887,4.206c6.47,4.599,11.39,13.577,10.799,23.715
	c-0.669,10.178-12.172,32.863-12.529,45.317c-0.359,12.454,9.772,24.81,12.708,29.26c2.851,4.453,4.553,6.99,6.513,11.937
	c2.045,4.906,3.41,12.13,1.844,19.621c-1.565,7.488-4.01,11.485-8.653,17.591c-4.571,6.106-16.543,17.519-22.51,25.533
	c-5.965,8.013-8.001,14.116-8.712,24.077c-0.712,9.998-0.194,20.292,0.039,33.281c0.298,12.989,0.441,28.143,0.443,46.185
	c0.001,18.016,0.423,132.838,0.532,158.648c0.045,25.806-0.54,40.267-0.286,66.077"/>
<path fill="none" stroke="#363639" d="M247.655,52.529"/>
</svg>
