<?xml version="1.0" encoding="utf-8"?>
<svg xmlns:svg="http://www.w3.org/2000/svg" xmlns="http://www.w3.org/2000/svg"><g visible="true" locked="false"><path d="M0.501,15.711C0.412741,15.6224,5.18236,9.17062,12.2011,4.69887C15.2423,2.76123,18.7058,1.19535,22.3794,0.679965C25.7986,0.20026,29.3998,0.630649,33.0118,2.51845C35.6606,3.9028,38.3151,6.07087,40.908,9.23849C43.2371,12.0839,45.5165,15.7358,47.6972,20.3507C49.218,23.5691,50.6908,27.2558,52.099,31.464C53.5557,35.8169,54.6743,39.6722,55.5062,43.0958C57.2274,50.1792,57.7211,55.4143,57.4415,59.3839C56.6939,69.9948,50.4204,71.5641,47.2942,75.2245C44.5358,78.4543,44.2277,83.3122,52.328,97.446C55.7959,103.497,58.2436,108.38,59.9033,112.344C68.9521,133.959,54.5757,128.279,54.383,135.802C54.3472,137.201,54.3169,140.991,54.2915,146.386C54.2685,151.236,54.2494,157.383,54.2335,164.257C54.2188,170.627,54.2067,177.622,54.197,184.785C54.185,193.565,54.1763,202.599,54.1701,211.049C54.1658,216.847,54.1627,222.371,54.1604,227.349C54.1541,240.903,54.154,250.413,54.154,250.413" style="fill:none;stroke:#000000"/></g></svg>