<?xml version="1.0" encoding="utf-8"?>
<!-- Generator: Adobe Illustrator 18.0.0, SVG Export Plug-In . SVG Version: 6.00 Build 0)  -->
<!DOCTYPE svg PUBLIC "-//W3C//DTD SVG 1.1//EN" "http://www.w3.org/Graphics/SVG/1.1/DTD/svg11.dtd">
<svg version="1.1" id="Layer1" xmlns="http://www.w3.org/2000/svg" xmlns:xlink="http://www.w3.org/1999/xlink" x="0px" y="0px"
	 viewBox="0 0 612 792" enable-background="new 0 0 612 792" xml:space="preserve">
<path fill="none" stroke="#363639" stroke-width="2.777800e-002" stroke-miterlimit="10" d="M18.5,341.1c12.9-1.1,25.6-2.1,32.9-4.2
	s11.4-4.2,17.3-9c5.9-4.8,12.1-11.2,16.5-20.5s8-19.9,11.4-23.7c3.4-3.8,6.1-5.8,11.1-6.9c5-1.1,13.3-0.4,19.8,4.2
	s11.4,13.5,10.7,23.6s-12.1,32.7-12.5,45.1c-0.4,12.4,9.7,24.7,12.6,29.1c2.9,4.4,4.6,7,6.5,11.9c2,4.9,3.3,12.1,1.8,19.5
	s-4,11.4-8.6,17.5s-16.5,17.4-22.4,25.4c-6,8-8,14-8.7,24c-0.7,9.9-0.2,20.2,0.1,33.1s0.4,28,0.4,46c0,18,0.5,132.3,0.5,158
	c0.1,25.7-0.6,40.1-0.2,65.8"/>
<path fill="none" stroke="#363639" stroke-width="2.777800e-002" stroke-miterlimit="10" d="M114.2,780c-5,0-7.8,0-12.8,0"/>
</svg>