<?xml version="1.0" encoding="UTF-8" standalone="no"?>
<!-- Created with Inkscape (http://www.inkscape.org/) -->

<svg
   xmlns:dc="http://purl.org/dc/elements/1.1/"
   xmlns:cc="http://creativecommons.org/ns#"
   xmlns:rdf="http://www.w3.org/1999/02/22-rdf-syntax-ns#"
   xmlns:svg="http://www.w3.org/2000/svg"
   xmlns="http://www.w3.org/2000/svg"
   xmlns:sodipodi="http://sodipodi.sourceforge.net/DTD/sodipodi-0.dtd"
   xmlns:inkscape="http://www.inkscape.org/namespaces/inkscape"
   width="210mm"
   height="297mm"
   viewBox="0 0 210 297"
   version="1.1"
   id="svg8"
   inkscape:version="0.92.3 (2405546, 2018-03-11)"
   sodipodi:docname="drawing.svg">
  <defs
     id="defs2" />
  <sodipodi:namedview
     id="base"
     pagecolor="#ffffff"
     bordercolor="#666666"
     borderopacity="1.0"
     inkscape:pageopacity="0.0"
     inkscape:pageshadow="2"
     inkscape:zoom="0.35"
     inkscape:cx="400"
     inkscape:cy="560"
     inkscape:document-units="mm"
     inkscape:current-layer="layer1"
     showgrid="false"
     inkscape:window-width="2560"
     inkscape:window-height="1377"
     inkscape:window-x="-8"
     inkscape:window-y="-8"
     inkscape:window-maximized="1" />
  <metadata
     id="metadata5">
    <rdf:RDF>
      <cc:Work
         rdf:about="">
        <dc:format>image/svg+xml</dc:format>
        <dc:type
           rdf:resource="http://purl.org/dc/dcmitype/StillImage" />
        <dc:title></dc:title>
      </cc:Work>
    </rdf:RDF>
  </metadata>
  <g
     inkscape:label="Layer 1"
     inkscape:groupmode="layer"
     id="layer1">
    <path
       style="fill:none;stroke:#000000;stroke-width:0.1795782px;stroke-linecap:butt;stroke-linejoin:miter;stroke-opacity:1"
       d="m 45.771071,142.08687 c -0.160366,-0.72977 -0.372382,-1.44693 -0.481086,-2.18878 -0.09479,-0.64709 0,-1.51128 0,-2.18903 0,-0.36475 0,-0.72947 0,-1.09438 0,-0.36477 -0.07777,-0.74052 0,-1.0944 0.17394,-0.79143 0.788218,-1.39751 0.962152,-2.189 0.07778,-0.35377 -0.143432,-0.76812 0,-1.09435 0.202843,-0.46136 0.710551,-0.66513 0.96215,-1.09437 0.123674,-0.21117 -0.08931,-1.337 0,-1.64176 0.226767,-0.77378 0.735359,-1.41488 0.962132,-2.18882 0.05068,-0.17299 -0.07171,-0.38415 0,-0.54716 0.202841,-0.46153 0.759302,-0.633 0.962147,-1.09447 0.226785,-0.51592 0.381624,-1.07605 0.481064,-1.64168 0.06287,-0.35777 -0.14342,-0.76825 0,-1.09441 0.07171,-0.16319 0.367687,0.1289 0.481081,0 0.479795,-0.54584 0.963412,-2.73753 1.44321,-3.28337 0.253552,-0.28847 0.763241,-0.20776 0.962146,-0.54717 0.177897,-0.30354 -0.101417,-0.74845 0,-1.09446 0.07171,-0.24475 0.320714,-0.36483 0.481063,-0.54721 0.160369,-0.18251 0.292384,-0.40406 0.48108,-0.54735 0.298351,-0.22611 0.708594,-0.25869 0.962145,-0.54704 0.226767,-0.25813 -0.226781,-0.83652 0,-1.09448 0.253536,-0.28857 0.663802,-0.32105 0.962126,-0.5473 0.953043,0.0552 0.227541,-0.80604 0.48109,-1.09446 0.113388,-0.12883 0.337628,0.0815 0.481065,0 0.577272,-0.32823 0.865934,-1.31327 1.443218,-1.64157 0.28686,-0.16322 0.657878,0.11534 0.962144,0 0.34017,-0.12902 0.621959,-0.4183 0.962144,-0.54723 0.152129,-0.0579 0.328934,0.0579 0.481053,0 0.340184,-0.12896 0.621987,-0.41829 0.962155,-0.5472 0.152137,-0.058 0.367675,0.12891 0.481076,0 0.113377,-0.1291 -0.113401,-0.41834 0,-0.54722 0.0594,-0.067 1.622605,0 1.924281,0 2.189978,0 0.0275,0.25798 1.443206,-0.54719 0.143436,-0.0821 0.320727,0 0.481089,0 0.330997,0 2.606303,0.10609 2.88642,0 0.34015,-0.12908 0.621979,-0.41831 0.962139,-0.54729 0.283899,-0.1077 2.136563,0 2.405357,0 1.603573,0 3.207149,0 4.810719,0 0.505429,0 1.927964,-0.10863 2.405361,0 0.49724,0.11307 0.951256,0.40738 1.443201,0.54729 0.15551,0.0442 0.367656,-0.12908 0.481059,0 0.113371,0.12895 -0.113403,0.4182 0,0.54719 0.113371,0.12888 0.337608,-0.0813 0.48111,0 0.405673,0.23072 0.556509,0.86361 0.962194,1.09442 0.286794,0.16311 0.695285,-0.20236 0.962138,0 0.377305,0.28619 0.641441,0.72955 0.962143,1.09438 0.16037,0.18237 0.278175,0.43189 0.480958,0.54726 0.143438,0.0808 0.337722,-0.0818 0.481179,0 0.577136,0.32842 0.865895,1.31333 1.443108,1.64162 0.143412,0.0823 0.367636,-0.12888 0.481078,0 0.113441,0.12907 0,0.36485 0,0.5473 0.160402,0.18242 0.292454,0.40414 0.481072,0.54716 0.298344,0.22622 0.708711,0.25883 0.962156,0.54732 0.113397,0.12887 -0.0717,0.38394 0,0.54704 0.28867,0.65682 1.154628,0.98511 1.443336,1.64178 0.07172,0.16308 0,0.36484 0,0.54724 0.160351,0.36483 0.282125,0.75509 0.480996,1.09435 0.125781,0.21464 0.355271,0.33262 0.481033,0.54717 0.198884,0.33948 0.282157,0.7552 0.481187,1.0945 0.125819,0.21474 0.37955,0.31657 0.481001,0.54733 0.07168,0.16308 0,0.3647 0,0.54719 0,0.3648 -0.101451,0.7482 0,1.09441 0.07168,0.24475 0.42597,0.29686 0.480989,0.54729 0.116648,0.53078 -0.15219,1.12245 0,1.64149 0.182849,0.62407 0.747416,1.03107 0.962106,1.64182 0.119121,0.33854 -0.07778,0.7405 0,1.09438 0.173924,0.79139 0.788321,1.39755 0.962226,2.18891 0.07778,0.35386 0,0.72962 0,1.09437 0,0.54718 0,1.09435 0,1.64177 0,0.36465 -0.06284,0.73668 0,1.0944 0.09944,0.56547 0.381586,1.07599 0.481021,1.64158 0.06284,0.3578 0,0.72963 0,1.09438 0,0.54729 0,1.09444 0,1.6417 0,0.36494 -0.101401,0.74836 0,1.09465 0.07169,0.24453 0.42618,0.29661 0.481212,0.54707 0.116641,0.53088 0,1.09439 0,1.64153 0,0.36505 0,0.72965 0,1.09456 0,1.6416 0,3.28332 0,4.92506 0,0.54712 -0.07912,1.10178 0,1.64154 0.08335,0.56896 0.357987,1.08217 0.480976,1.64164 0.111222,0.5061 0,2.86251 0,3.28325 0,2.55379 0,5.10756 0,7.66118 0,6.01939 0,12.03887 0,18.05826 0,17.87594 0,35.75169 0,53.62756 0,5.65463 0,11.30928 0,16.9638 0,1.82405 0,3.64813 0,5.4721 0,0.15281 0,3.39835 0,1.6419"
       id="path16"
       inkscape:connector-curvature="0" />
  </g>
</svg>
