<?xml version="1.0" encoding="utf-8"?>
<svg xmlns:svg="http://www.w3.org/2000/svg" xmlns="http://www.w3.org/2000/svg"><g visible="true" locked="false"><path d="M0.5,42.999C0.5,37.5351,1.26642,32.6893,2.67635,28.4114C3.76445,25.11,5.23582,22.1468,7.03395,19.4987C9.09641,16.4613,11.5888,13.8385,14.4257,11.5954C17.1234,9.46239,20.1327,7.67271,23.3803,6.19635C26.986,4.55723,30.8854,3.30432,34.9783,2.39657C38.8427,1.5395,42.8796,0.990129,47.0044,0.71392C50.9648,0.448727,55.0063,0.43534,59.0541,0.643181C63.0893,0.850369,67.1308,1.2774,71.1046,1.89398C74.4971,2.42035,77.8402,3.08487,81.088,3.8687C84.3587,4.65808,87.5328,5.56846,90.563,6.58059C95.1231,8.10371,99.3576,9.85725,103.106,11.7756C106.85,13.6917,110.109,15.7723,112.724,17.9519C116.969,21.4907,119.515,25.2907,119.678,29.072C119.863,33.3664,120.228,39.5037,120.71,46.7733C121.471,58.2477,122.523,72.5431,123.617,86.8654C126.104,119.429,128.81,152.131,128.81,152.131" style="fill:none;stroke:#000000"/></g></svg>