<?xml version="1.0" encoding="utf-8"?>
<svg xmlns:svg="http://www.w3.org/2000/svg" xmlns="http://www.w3.org/2000/svg"><g visible="true" locked="false"><path d="M60.688,157.365C55.638,157.734,46.389,150.003,44.329,145.789C42.262,141.481,41.8447,136.34,41.8922,131.116C41.9397,125.891,42.452,120.583,42.244,115.937C42.0315,110.611,42.0901,105.265,42.2848,99.9063C42.4391,95.658,42.6789,91.4012,42.9368,87.139C43.2348,82.2161,43.557,77.286,43.7998,72.3531C44.0211,67.8555,44.1764,63.3556,44.187,58.857C44.237,53.5013,44.6219,47.7378,44.8268,41.9233C44.9772,37.6576,45.0307,33.3644,44.784,29.1847C44.5535,25.2781,44.0608,21.4705,43.14,17.877C42.1284,13.9024,39.8955,10.349,36.9506,7.5071C34.5897,5.22881,31.7713,3.40783,28.7577,2.19379C24.5711,0.507205,20.0078,-0.00801692,15.7715,1.04932C12.4672,1.87403,9.36171,3.65547,6.789,6.584C3.56941,10.2586,1.84818,14.9199,1.05785,19.8126C0.323281,24.36,0.392872,29.1073,0.811,33.448C1.25717,37.9787,1.89143,42.4531,2.48435,46.9581C3.14593,51.9847,3.75605,57.0495,3.996,62.273C4.2996,68.5989,4.55637,74.9338,4.77752,81.2753C4.97001,86.7949,5.13552,92.3194,5.28143,97.8472C5.45527,104.433,5.60129,111.023,5.73199,117.614C5.84876,123.503,5.9533,129.393,6.05453,135.282C6.15307,141.015,6.24847,146.747,6.34895,152.476C6.44995,158.235,6.55608,163.992,6.67569,169.744C6.75702,173.655,6.84458,177.564,6.941,181.47C7.589,206.72,7.677,232.493,6.483,257.712C5.964,267.94,5.812,278.498,5.736,288.72C5.393,335.037,1.631,381.933,1.309,428.529" style="fill:none;stroke:#000000"/></g></svg>