<?xml version="1.0" encoding="utf-8"?>
<svg xmlns:svg="http://www.w3.org/2000/svg" xmlns="http://www.w3.org/2000/svg"><g visible="true" locked="false"><path d="M60.688,157.365C58.0228,157.56,54.1881,155.498,50.8578,152.889C47.8779,150.553,45.3018,147.779,44.329,145.789C42.9701,142.956,42.3242,139.764,42.0547,136.425C41.7909,133.158,41.8875,129.749,42.029,126.399C42.1827,122.758,42.3894,119.185,42.244,115.937C42.0654,111.46,42.0783,106.97,42.2026,102.469C42.2938,99.1647,42.445,95.8546,42.6245,92.5405C42.8522,88.3374,43.1253,84.1276,43.3791,79.9142C43.6234,75.8596,43.8497,71.8016,44.0004,67.7427C44.1103,64.7809,44.18,61.8187,44.187,58.857C44.2309,54.1557,44.5328,49.1401,44.7446,44.0516C44.8833,40.7182,44.9833,37.3535,44.9467,34.0253C44.8852,28.432,44.4379,22.9419,43.14,17.877C42.0129,13.4485,39.3695,9.54279,35.9144,6.56163C32.8148,3.88716,29.062,1.9568,25.1645,1.06061C21.6097,0.243216,17.9347,0.286123,14.5253,1.40941C11.6885,2.34405,9.03562,4.02665,6.789,6.584C4.72807,8.93622,3.2811,11.6927,2.29925,14.6554C1.22901,17.8848,0.711404,21.3592,0.553667,24.822C0.419937,27.7578,0.544873,30.6852,0.811,33.448C1.21322,37.5324,1.7683,41.5711,2.30815,45.6276C3.03532,51.0917,3.73487,56.5883,3.996,62.273C4.20074,66.539,4.38418,70.809,4.54976,75.0825C4.72671,79.6493,4.88327,84.2199,5.02362,88.7934C5.24353,95.959,5.42368,103.132,5.58018,110.307C5.74686,117.949,5.88672,125.595,6.01927,133.239C6.08126,136.814,6.14164,140.389,6.20242,143.963C6.41527,156.48,6.63293,168.989,6.941,181.47C7.589,206.72,7.677,232.493,6.483,257.712C5.964,267.94,5.812,278.498,5.736,288.72C5.393,335.037,1.631,381.933,1.309,428.529" style="fill:none;stroke:#000000"/></g></svg>