<?xml version="1.0" encoding="utf-8"?>
<svg xmlns:svg="http://www.w3.org/2000/svg" xmlns="http://www.w3.org/2000/svg"><g visible="true" locked="false"><path d="M0.043,36.384C3.01634,36.1266,5.9683,35.8852,8.69437,35.6073C12.5338,35.2159,15.9251,34.752,18.297,34.069C22.353,32.901,24.599,31.739,27.892,29.099C31.185,26.458,34.615,22.908,37.033,17.757C39.45,12.605,41.465,6.733,43.33,4.6C45.194,2.467,46.716,1.38,49.479,0.755C52.241,0.13,56.872,0.558,60.452,3.086C64.031,5.613,66.761,10.567,66.406,16.173C66.2334,18.9057,64.637,23.2838,63.0227,27.8489C61.326,32.6474,59.6095,37.6525,59.506,41.171C59.303,48.037,64.905,54.842,66.508,57.3C68.112,59.759,69.03,61.162,70.132,63.883C71.234,66.603,71.977,70.581,71.112,74.71C70.249,78.838,68.902,81.04,66.365,84.409C65.1239,86.0569,62.9168,88.4045,60.5981,90.8901C58.1752,93.4874,55.6304,96.2354,53.939,98.493C50.63,102.912,49.532,106.277,49.132,111.783C48.732,117.289,49.02,122.97,49.168,130.138C49.316,137.306,49.383,145.661,49.385,155.613C49.387,165.564,49.645,228.905,49.682,243.146C49.719,257.387,49.375,265.364,49.548,279.604" style="fill:none;stroke:#000000"/></g></svg>