<?xml version="1.0" encoding="utf-8"?>
<!-- Generator: Adobe Illustrator 12.0.0, SVG Export Plug-In . SVG Version: 6.00 Build 51448)  -->
<!DOCTYPE svg PUBLIC "-//W3C//DTD SVG 1.1//EN" "http://www.w3.org/Graphics/SVG/1.1/DTD/svg11.dtd" [
	<!ENTITY ns_svg "http://www.w3.org/2000/svg">
	<!ENTITY ns_xlink "http://www.w3.org/1999/xlink">
]>
<svg  version="1.1" id="Layer1" xmlns="&ns_svg;" xmlns:xlink="&ns_xlink;" width="71.99" height="279.611"
	 viewBox="0 0 71.99 279.611" overflow="visible" enable-background="new 0 0 71.99 279.611" xml:space="preserve">
<path fill="none" stroke="#363639" d="M0.043,36.384c7.161-0.62,14.198-1.147,18.254-2.315s6.302-2.33,9.595-4.97
	c3.293-2.641,6.723-6.191,9.141-11.342C39.45,12.605,41.465,6.733,43.33,4.6c1.864-2.133,3.386-3.22,6.149-3.845
	c2.762-0.625,7.393-0.197,10.973,2.331c3.579,2.527,6.309,7.481,5.954,13.087c-0.354,5.605-6.698,18.132-6.9,24.998
	c-0.203,6.866,5.399,13.671,7.002,16.129c1.604,2.459,2.522,3.862,3.624,6.583c1.102,2.72,1.845,6.698,0.98,10.827
	c-0.863,4.128-2.21,6.33-4.747,9.699c-2.538,3.37-9.116,9.666-12.426,14.084c-3.309,4.419-4.407,7.784-4.807,13.29
	c-0.4,5.506-0.112,11.187,0.036,18.355s0.215,15.523,0.217,25.475c0.002,9.951,0.26,73.292,0.297,87.533
	c0.037,14.241-0.307,22.218-0.134,36.458"/>
</svg>
