<?xml version="1.0" encoding="utf-8"?>
<svg xmlns:svg="http://www.w3.org/2000/svg" xmlns="http://www.w3.org/2000/svg"><g visible="true" locked="false"><path d="M21.642,149.904C27.2594,149.416,32.8312,148.96,37.9433,148.429C44.6464,147.732,50.559,146.906,54.747,145.712C58.8684,144.507,61.963,143.316,64.9383,141.656C67.2604,140.36,69.5098,138.777,72.118,136.678C75.5543,133.93,79.06,130.638,82.2496,126.57C84.6209,123.546,86.8175,120.092,88.681,116.113C90.7653,111.703,92.6727,107.001,94.4644,102.861C96.4634,98.2423,98.3183,94.3234,100.114,92.292C103.488,88.4,106.26,86.453,111.285,85.32C113.852,84.7335,117.36,84.6495,121.045,85.3441C124.473,85.9902,128.054,87.3101,131.172,89.526C134.289,91.7414,137.046,94.9731,139,98.861C141.103,103.044,142.277,107.987,141.971,113.241C141.8,115.836,140.925,119.245,139.71,123.09C138.58,126.667,137.155,130.621,135.73,134.648C134.658,137.679,133.585,140.751,132.637,143.736C130.886,149.245,129.56,154.456,129.442,158.558C129.337,162.209,130.133,165.851,131.385,169.289C132.414,172.112,133.75,174.797,135.146,177.234C137.85,181.952,140.782,185.744,142.15,187.818C145.001,192.271,146.703,194.808,148.663,199.755C149.733,202.322,150.617,205.524,150.992,209.066C151.334,212.294,151.254,215.805,150.507,219.376C149.807,222.725,148.931,225.376,147.761,227.829C146.315,230.861,144.42,233.592,141.854,236.967C140.347,238.98,138.037,241.569,135.402,244.423C133.405,246.586,131.222,248.901,129.062,251.233C125.425,255.158,121.854,259.13,119.344,262.5C116.74,265.999,114.884,269.133,113.561,272.384C111.854,276.578,111.033,280.965,110.632,286.577C110.268,291.688,110.225,296.876,110.302,302.461C110.375,307.803,110.557,313.509,110.671,319.858C110.758,323.661,110.832,327.649,110.893,331.84C111.041,341.967,111.113,353.283,111.114,366.043C111.115,384.059,111.537,498.881,111.646,524.691C111.691,550.497,111.106,564.958,111.36,590.768" style="fill:none;stroke:#000000"/><path d="" style="fill:none;stroke:#000000"/></g></svg>