<?xml version="1.0" encoding="utf-8"?>
<svg xmlns:svg="http://www.w3.org/2000/svg" xmlns="http://www.w3.org/2000/svg"><g visible="true" locked="false"><path d="" style="fill:none;stroke:#000000"/><path d="M45,586.5C45,579.112,44.8653,571.66,44.6688,564.168C44.4706,556.608,44.2093,549.007,43.96,541.389C43.7723,535.658,43.5915,529.918,43.4491,524.178C43.3609,520.62,43.2875,517.062,43.2366,513.507C43.1171,505.176,43.1208,496.86,43.3453,488.59C43.5649,480.501,43.9958,472.457,44.7294,464.487C45.284,458.461,46.0117,452.477,46.952,446.548C47.9345,440.352,48.8474,434.156,49.7123,427.96C50.6736,421.074,51.5758,414.189,52.4489,407.308C53.132,401.924,53.7972,396.542,54.4589,391.163C55.1683,385.397,55.8737,379.634,56.5928,373.877C57.3811,367.565,58.1859,361.259,59.0305,354.961C60.0319,347.494,61.0891,340.037,62.2412,332.595C63.0144,327.6,63.8303,322.611,64.7007,317.629C65.7355,311.706,66.8472,305.794,68.0557,299.893C68.9199,295.673,69.8336,291.459,70.804,287.251C71.9354,282.346,73.0256,277.397,74.0571,272.414C74.8527,268.571,75.6135,264.707,76.3312,260.827C77.0899,256.726,77.8005,252.607,78.4537,248.474C79.5139,241.766,80.4225,235.022,81.139,228.264C81.9024,221.063,82.4475,213.845,82.7253,206.636C82.8559,203.245,82.9274,199.856,82.9346,196.472C82.9426,192.751,82.8729,189.036,82.7187,185.33C82.4732,179.43,82.0137,173.552,81.3128,167.71C80.6763,162.405,79.8407,157.131,78.7855,151.897C77.2614,144.337,75.2792,136.861,72.777,129.5C71.142,124.69,69.1195,118.999,66.9915,112.732C65.467,108.243,63.8884,103.457,62.3592,98.4871C60.081,91.0828,57.9126,83.2696,56.1966,75.417C54.9219,69.5838,53.8969,63.7288,53.2621,58.0035C52.6193,52.2064,52.3765,46.5422,52.6796,41.1683C53.0272,35.0059,54.0926,29.2251,56.0957,24.0631C57.9427,19.3037,60.5867,15.0703,64.2003,11.5487C68.31,7.54376,73.6736,4.45949,80.5448,2.56928C84.7728,1.40621,89.5715,0.695222,95,0.5C99.441,0.340292,103.903,0.425545,108.365,0.68951C114.586,1.05748,120.807,1.77273,126.974,2.65581C134.429,3.7233,141.803,5.03603,149,6.277C152.704,6.91559,156.386,7.38249,160.037,7.85431C165.436,8.55207,170.767,9.26057,176,10.551C180.391,11.6342,183.994,13.3565,187.008,15.5642C191.638,18.9548,194.881,23.49,197.466,28.6124C201.091,35.7962,203.42,44.1347,206.461,52.09" style="fill:none;stroke:#000000"/></g></svg>