<?xml version="1.0" encoding="utf-8"?>
<svg xmlns:svg="http://www.w3.org/2000/svg" xmlns="http://www.w3.org/2000/svg"><g visible="true" locked="false"><path d="M19.411,92.451C19.411,92.451,24.0472,96.9808,30.9983,101.989C33.2915,103.642,35.8366,105.346,38.5504,106.957C42.223,109.137,46.2044,111.147,50.288,112.625C53.0487,113.624,55.8561,114.38,58.6464,114.782C62.2319,115.298,65.7892,115.229,69.1828,114.339C71.9719,113.608,74.6505,112.321,77.1433,110.348C80.1391,107.978,82.8666,104.616,85.1951,100.035C86.5274,97.4146,87.7291,94.3949,88.7758,90.9336C89.9751,86.9675,90.9709,82.4215,91.7264,77.2316C92.4961,71.9437,92.8919,67.0203,92.9625,62.4364C93.0592,56.1604,92.5464,50.5206,91.5492,45.4526C90.6525,40.895,89.3641,36.7998,87.7751,33.1201C86.4797,30.1203,84.9846,27.3967,83.339,24.9239C81.6227,22.3446,79.7426,20.038,77.7549,17.9755C75.6199,15.7601,73.3608,13.8262,71.0468,12.138C68.2642,10.1079,65.4024,8.43326,62.582,7.05184C57.9926,4.80395,53.513,3.33256,49.663,2.37C42.8585,0.668762,38.021,0.557,38.021,0.557C38.021,0.557,33.2393,-0.0259149,27.0899,2.52904C24.8001,3.48043,22.3206,4.8669,19.8277,6.88058C17.0892,9.09275,14.3345,12.0619,11.7974,16.0426C9.3413,19.8962,7.08913,24.6978,5.25287,30.6784C3.85057,35.2457,2.69082,40.5005,1.86803,46.5459C1.10911,52.1221,0.636881,58.3709,0.525434,65.3729C0.438379,70.8425,0.571463,76.7717,0.96,83.199C1.33921,89.4729,1.69602,95.3763,2.03252,100.943C9.54661,225.26,6.92889,181.901,17.243,351.883" style="fill:none;stroke:#000000"/></g></svg>