<?xml version="1.0" encoding="utf-8"?>
<svg xmlns:svg="http://www.w3.org/2000/svg" xmlns="http://www.w3.org/2000/svg"><g visible="true" locked="false"><path d="M38.4727,54.7169C42.8175,56.4718,47.3517,57.4819,51.6655,57.0005C56.7477,56.4334,61.5239,53.7961,65.324,47.8674C66.9583,45.3175,68.4121,42.1587,69.632,38.294C72.0563,30.619,71.7944,24.0436,69.7319,18.632C68.2159,14.6541,65.7269,11.3051,62.6167,8.61053C58.8012,5.30478,54.0506,2.98398,49.0146,1.69534C44.4985,0.539734,39.7527,0.214182,35.2457,0.75273C30.0543,1.37306,25.1797,3.13985,21.3375,6.10513C16.8021,9.60551,13.7055,14.7759,13.225,21.702C12.0959,37.9411,10.6916,59.4233,9.4243,79.1718C7.80704,104.374,6.41297,126.753,6.099,131.809C6.053,132.506,6.03,132.872,6.03,132.872" style="fill:none;stroke:#000000"/></g></svg>