<?xml version="1.0" encoding="utf-8"?>
<svg xmlns:svg="http://www.w3.org/2000/svg" xmlns="http://www.w3.org/2000/svg"><g visible="true" locked="false"><path d="M13.552,52.5285C13.1904,56.6302,13.3604,61.4564,14.0365,66.5948C14.5565,70.5471,15.3759,74.6841,16.4831,78.8182C17.7081,83.3925,19.2854,87.9631,21.1992,92.2761C23.2058,96.7981,25.5824,101.037,28.3107,104.699C30.2696,107.329,32.4098,109.661,34.7246,111.588C37.1542,113.611,39.7762,115.187,42.5828,116.19C46.4546,117.575,50.2812,118.55,54.0195,119.125C58.8853,119.874,63.6016,119.944,68.0734,119.356C73.0717,118.699,77.7645,117.22,82.0191,114.947C85.9008,112.874,89.4177,110.139,92.4693,106.765C94.665,104.337,96.6198,101.578,98.2961,98.4964C100.303,94.807,101.911,90.6545,103.055,86.0526C104.47,80.3628,105.575,74.0933,106.152,67.6233C106.595,62.6627,106.728,57.5844,106.452,52.5592C106.215,48.226,105.674,43.9323,104.766,39.7877C103.988,36.237,102.942,32.7957,101.587,29.5328C100.42,26.7243,99.0252,24.048,97.3762,21.5477C95.7868,19.1377,93.9615,16.8913,91.8778,14.8479C89.7224,12.7343,87.2905,10.8378,84.557,9.202C79.9339,6.43678,73.6905,4.06869,66.9251,2.50421C63.4459,1.69966,59.8287,1.10763,56.2227,0.783406C52.2463,0.42587,48.2837,0.393997,44.5352,0.761917C39.8702,1.21979,35.5367,2.29686,31.921,4.136C25.4643,7.42118,20.3024,11.9544,16.1844,17.3672C12.648,22.0157,9.88149,27.313,7.72597,33.0256C5.64471,38.5415,4.13308,44.4447,3.04803,50.5251C1.78879,57.5816,1.10408,64.877,0.770307,72.0827C0.399369,80.0908,0.461864,87.9883,0.650873,95.3245C0.768562,99.8925,0.935302,104.243,1.077,108.267C1.24821,113.118,1.44513,117.972,1.66465,122.828C1.90168,128.072,2.16507,133.319,2.45087,138.568C2.73735,143.829,3.04635,149.093,3.37393,154.359C3.87176,162.362,4.41248,170.37,4.98224,178.382C5.41745,184.503,5.8696,190.626,6.33251,196.75C7.02937,205.971,7.75061,215.196,8.47512,224.425C9.30486,234.994,10.1389,245.567,10.9455,256.143C11.269,260.384,11.5881,264.625,11.9008,268.867C12.2345,273.396,12.561,277.925,12.8776,282.454C13.2159,287.295,13.5431,292.136,13.8559,296.977C14.1586,301.66,14.448,306.344,14.7212,311.027C16.0965,334.6,17.0636,358.169,17.272,381.71" style="fill:none;stroke:#000000"/></g></svg>